<svg width="42" height="38" viewBox="0 0 42 38" fill="none" xmlns="http://www.w3.org/2000/svg">
<path d="M22.4096 31.5185C21.6963 32.1719 20.9909 32.8174 20.2862 33.4634C19.4459 34.2336 18.6271 35.0297 17.7591 35.7669C17.1256 36.3048 16.3628 36.4402 15.5414 36.2666C14.7045 36.0894 14.2313 35.5082 13.8585 34.8031C13.528 34.1784 13.341 33.499 13.1358 32.8274C12.3713 30.3251 11.6098 27.8215 10.847 25.3188C10.7242 24.9155 10.5962 24.5139 10.4794 24.1089C10.4505 24.0081 10.4014 23.9604 10.3036 23.9274C8.04277 23.1629 5.7824 22.398 3.52462 21.6256C3.02298 21.4542 2.51446 21.2888 2.03782 21.06C1.33622 20.7231 0.750549 20.2295 0.368291 19.5301C-0.29409 18.318 -0.0488753 16.9536 0.990161 16.0419C1.40733 15.6755 1.8831 15.4024 2.39163 15.1867C4.48565 14.2989 6.58053 13.4128 8.67455 12.525C11.7339 11.2283 14.7937 9.93113 17.8526 8.63309C21.5688 7.05548 25.2845 5.47439 29.0028 3.89937C31.7803 2.72289 34.5595 1.55031 37.3405 0.382079C37.9348 0.132456 38.5506 -0.0242637 39.2061 0.0030863C40.5016 0.056918 41.6346 1.00331 41.9147 2.27835C42.0608 2.94386 42.0013 3.60243 41.8711 4.26187C41.6027 5.62112 41.3398 6.98168 41.076 8.34179C40.8123 9.70191 40.5511 11.0629 40.2878 12.423C39.9689 14.0701 39.6491 15.7172 39.3294 17.3643C39.0208 18.9527 38.7114 20.5412 38.4032 22.1301C38.0223 24.0963 37.6426 26.0624 37.2616 28.0286C36.866 30.069 36.4695 32.1089 36.0739 34.1493C36.0037 34.5105 35.9343 34.8722 35.8688 35.2342C35.7753 35.7521 35.5012 36.1797 35.1874 36.5813C34.301 37.7148 33.1094 38.0973 31.7234 37.9796C31.2313 37.938 30.7589 37.8064 30.3176 37.585C30.128 37.4899 29.9591 37.3484 29.7893 37.2173C27.3591 35.3406 24.9307 33.4621 22.5018 31.5841C22.4759 31.5641 22.4488 31.5463 22.4096 31.5185ZM3.58754 18.2138C3.96764 18.3428 4.3012 18.4561 4.63476 18.5694C7.41314 19.5119 10.1915 20.4544 12.9686 21.3999C13.0535 21.429 13.1117 21.4238 13.1871 21.376C14.0081 20.8598 14.8316 20.3484 15.6543 19.8349C18.2961 18.1861 20.9379 16.5368 23.5801 14.888C26.6062 12.9995 29.6311 11.1089 32.6616 9.22741C32.8439 9.11411 33.0676 9.06071 33.2783 9.00558C33.4222 8.96781 33.5882 8.98951 33.6567 9.1471C33.7386 9.33508 33.7924 9.54302 33.6321 9.72406C33.4675 9.90986 33.302 10.0961 33.1214 10.2658C31.9221 11.3963 30.718 12.5216 29.5165 13.6499C27.5349 15.5105 25.5551 17.3725 23.5736 19.2336C21.6395 21.05 19.7045 22.8651 17.7725 24.6841C17.7147 24.7383 17.6647 24.8234 17.6522 24.9007C17.4941 25.8788 17.3428 26.8586 17.1907 27.8376C16.989 29.1378 16.7877 30.4384 16.5869 31.7386C16.5468 31.9974 16.5089 32.2565 16.4701 32.5153C16.4809 32.5205 16.4917 32.5257 16.5025 32.5309C18.4099 30.7801 20.3177 29.0292 22.2268 27.2767C22.2859 27.321 22.329 27.3522 22.3712 27.3852C23.7292 28.4341 25.0871 29.4829 26.4451 30.5313C28.1788 31.8706 29.9104 33.2129 31.6506 34.5431C31.8057 34.6616 32.013 34.7298 32.2069 34.7732C32.4513 34.8283 32.6883 34.6269 32.7383 34.3694C32.9353 33.3492 33.1322 32.3286 33.3309 31.3088C33.789 28.955 34.2484 26.602 34.7056 24.2482C35.168 21.8679 35.6274 19.4871 36.089 17.1068C36.4467 15.2631 36.8061 13.4198 37.1638 11.5756C37.6564 9.03553 38.1481 6.49545 38.6385 3.95538C38.6769 3.75611 38.7058 3.55468 38.739 3.35411C38.7243 3.34282 38.7101 3.33154 38.6954 3.32025C27.0075 8.27928 15.3186 13.2374 3.58754 18.2138Z" fill="white"/>
</svg>
