<svg width="43" height="25" viewBox="0 0 43 25" fill="none" xmlns="http://www.w3.org/2000/svg">
<path d="M23.9069 25C22.3801 25 20.8534 25 19.3266 25C19.2855 24.9935 19.244 24.9853 19.2029 24.98C18.9226 24.946 18.6403 24.9243 18.3616 24.8777C17.322 24.7035 16.3426 24.3416 15.4044 23.8561C13.9419 23.0996 12.6511 22.0952 11.4518 20.962C9.8875 19.4836 8.51846 17.8285 7.26002 16.0753C5.08449 13.0441 3.25592 9.80067 1.66689 6.41246C1.07999 5.16105 0.528225 3.89369 0.0670879 2.58707C-0.191228 1.85626 0.3278 1.10868 1.08638 1.10828C3.19962 1.10664 5.31287 1.10705 7.42651 1.10828C8.03257 1.10868 8.56118 1.47675 8.78876 2.05338C10.1418 5.48167 11.8654 8.7014 13.9615 11.7117C14.0146 11.7882 14.0689 11.8655 14.1343 11.9305C14.8985 12.6932 16.1689 12.4503 16.6161 11.4578C16.7219 11.2234 16.7634 10.9768 16.7594 10.7196C16.7295 8.78319 16.7019 6.84677 16.6704 4.91077C16.6612 4.33618 16.5945 3.76936 16.377 3.23322C16.0476 2.42144 15.4706 1.92128 14.6091 1.79778C14.4194 1.77079 14.2258 1.77529 14.0269 1.76465C14.0377 1.74748 14.0473 1.72948 14.0593 1.71353C14.7153 0.844907 15.5681 0.299357 16.6205 0.0887439C16.8481 0.0433495 17.0816 0.028627 17.3128 0C17.3763 0 17.4402 0 17.5036 0C17.6019 0.00736124 17.7001 0.0208568 17.7979 0.0208568C19.5119 0.0220837 21.2259 0.0208568 22.9399 0.0233106C23.0772 0.0233106 23.2165 0.0310808 23.3511 0.0564362C24.5221 0.276047 25.307 1.24609 25.307 2.46683C25.307 4.95739 25.3058 7.44753 25.309 9.93808C25.3094 10.1724 25.323 10.4088 25.3521 10.6411C25.4005 11.0247 25.5047 11.3927 25.733 11.7097C25.9622 12.0279 26.2656 12.1906 26.6533 12.0904C26.8278 12.0454 27.0067 11.969 27.1504 11.861C27.3823 11.6868 27.6051 11.4913 27.7996 11.2746C28.3725 10.6354 28.7929 9.88942 29.191 9.12917C30.4402 6.7429 31.6875 4.3554 32.9411 1.97159C33.2374 1.40845 33.7133 1.11237 34.3381 1.11073C36.6741 1.1046 39.0098 1.10664 41.3458 1.11114C41.5526 1.11155 41.763 1.13486 41.9654 1.17821C42.4166 1.27554 42.7703 1.5111 42.8717 2.00512C42.9117 2.19938 42.9109 2.40917 42.8921 2.60833C42.8518 3.03324 42.7049 3.43034 42.5348 3.81721C42.1036 4.79953 41.5243 5.68983 40.8934 6.54578C39.3947 8.57871 37.8895 10.6067 36.3887 12.6376C35.7507 13.5009 35.8098 14.7057 36.5364 15.4864C37.9873 17.0454 39.443 18.5994 40.8982 20.1539C41.331 20.6164 41.781 21.0626 42.2014 21.5361C42.5711 21.9529 42.8422 22.4346 42.9592 22.9945C43.1113 23.7208 42.835 24.3383 42.1846 24.6642C41.9622 24.7759 41.7167 24.8446 41.4756 24.9084C41.2859 24.9583 41.0871 24.9706 40.8918 24.9996C38.6089 24.9996 36.3256 24.9996 34.0427 24.9996C34.0227 24.9935 34.0031 24.9841 33.9828 24.9812C33.4793 24.9174 33.0433 24.706 32.6736 24.351C32.2301 23.9253 31.7877 23.4987 31.3445 23.0726C30.2035 21.9749 29.064 20.8757 27.9213 19.7797C27.5408 19.4145 27.0869 19.2705 26.5739 19.3682C25.8173 19.513 25.307 20.1559 25.3066 20.9468C25.3058 21.7647 25.3082 22.5827 25.3058 23.401C25.3038 24.0872 24.8702 24.6982 24.2338 24.9137C24.1272 24.9505 24.0158 24.9718 23.9069 25Z" fill="white"/>
</svg>
