<svg width="120" height="102" viewBox="0 0 120 102" fill="none" xmlns="http://www.w3.org/2000/svg">
<path d="M119.67 58.24L119.66 57.78C119.18 40.65 111.33 24.55 98.12 13.62C98.12 13.62 98.12 13.62 98.11 13.61C87.49 4.84 74.04 0 60.24 0C46.96 0 34.39 4.29 23.89 12.42C9.73 23.38 1.32 39.91 0.829999 57.78L0.809999 58.26C0.799999 58.66 0.779999 59.06 0.779999 59.46C0.779999 74.88 6.67 89.51 17.38 100.64C17.85 101.12 18.49 101.4 19.16 101.41C19.17 101.41 19.18 101.41 19.18 101.41C19.84 101.41 20.48 101.15 20.95 100.68L35.5 86.13C36.46 85.17 36.48 83.63 35.55 82.65C29.62 76.34 26.36 68.1 26.36 59.46C26.36 58.96 26.38 58.46 26.4 57.97C26.84 47.88 31.72 38.59 39.78 32.46C45.71 27.96 52.78 25.58 60.24 25.58C68.08 25.58 75.45 28.19 81.54 33.12C89.09 39.23 93.66 48.29 94.08 57.96C94.1 58.46 94.12 58.95 94.12 59.45C94.12 63.7 93.33 67.85 91.82 71.72L65.62 49.8C64.94 49.23 64.02 49.07 63.18 49.36L47.88 54.76C47.25 54.98 46.74 55.44 46.46 56.04C46.17 56.64 46.14 57.33 46.36 57.95L51.76 73.25C52.05 74.08 52.76 74.7 53.63 74.87L86.11 81.33C85.73 81.78 85.34 82.21 84.94 82.64C84.01 83.62 84.04 85.16 84.99 86.12L99.54 100.67C100.01 101.14 100.64 101.4 101.31 101.4C101.32 101.4 101.33 101.4 101.33 101.4C102 101.39 102.64 101.12 103.11 100.63C113.81 89.5 119.71 74.87 119.71 59.45C119.69 59.05 119.68 58.64 119.67 58.24ZM30.3 84.25L19.26 95.29C10.75 85.58 6 73.29 5.79 60.35H21.37C21.57 69.14 24.71 77.51 30.3 84.25ZM21.58 55.35H5.96C7.05 40.79 13.88 27.38 25.04 17.92C25.08 17.97 25.11 18.01 25.15 18.06C25.85 18.93 26.54 19.8 27.26 20.7C27.79 21.37 28.33 22.04 28.87 22.72C29.25 23.2 29.63 23.67 30.01 24.15C30.82 25.17 31.64 26.19 32.46 27.22C33.23 28.18 33.99 29.13 34.76 30.09C27.3 36.55 22.61 45.55 21.58 55.35ZM82.75 27.76C76.2 23.11 68.3 20.58 60.24 20.58C52.5 20.58 45.12 22.81 38.74 27.06C38.42 26.66 38.1 26.26 37.77 25.85C37.46 25.46 37.15 25.07 36.84 24.69C34.16 21.34 31.51 18.03 28.99 14.87C38.18 8.4 48.93 5 60.24 5C72.03 5 83.53 8.85 92.92 15.89L82.75 27.76ZM86.63 30.91L96.77 19.08C107.12 28.45 113.47 41.44 114.52 55.35H98.9C97.91 46 93.54 37.31 86.63 30.91ZM55.99 70.25L51.9 58.65L63.5 54.56L89.59 76.38L90.45 77.1L89.29 76.87L55.99 70.25ZM101.22 95.29L90.18 84.25C90.67 83.66 91.14 83.04 91.6 82.42L99.08 83.91C99.24 83.94 99.41 83.96 99.57 83.96C100.52 83.96 101.4 83.42 101.82 82.54C102.31 81.51 102.05 80.28 101.17 79.54L95.84 75.09C97.87 70.48 99 65.49 99.11 60.35H114.69C114.48 73.29 109.73 85.58 101.22 95.29Z" fill="url(#paint0_linear)"/>
<defs>
<linearGradient id="paint0_linear" x1="60.245" y1="0" x2="60.245" y2="101.41" gradientUnits="userSpaceOnUse">
<stop stop-color="#009ED0"/>
<stop offset="1" stop-color="#2C344D"/>
</linearGradient>
</defs>
</svg>
