<svg width="87" height="118" viewBox="0 0 87 118" fill="none" xmlns="http://www.w3.org/2000/svg">
<path d="M43.45 117.48C41.73 117.48 40.08 116.75 38.93 115.46C37.35 113.7 0.23999 72.03 0.23999 43.21C0.23999 19.38 19.63 0 43.45 0C67.27 0 86.66 19.38 86.66 43.21C86.66 72.01 49.55 113.7 47.97 115.46C46.82 116.74 45.17 117.48 43.45 117.48ZM43.45 4.8C22.27 4.8 5.03999 22.03 5.03999 43.21C5.03999 70.22 40.97 110.55 42.5 112.26C42.83 112.63 43.24 112.68 43.45 112.68C43.66 112.68 44.07 112.62 44.4 112.26C45.93 110.56 81.86 70.2 81.86 43.21C81.86 22.03 64.63 4.8 43.45 4.8ZM43.45 66.14C30.81 66.14 20.52 55.85 20.52 43.21C20.52 30.57 30.81 20.28 43.45 20.28C56.09 20.28 66.38 30.57 66.38 43.21C66.38 55.85 56.09 66.14 43.45 66.14ZM43.45 25.08C33.45 25.08 25.32 33.21 25.32 43.21C25.32 53.21 33.45 61.34 43.45 61.34C53.45 61.34 61.58 53.21 61.58 43.21C61.58 33.21 53.45 25.08 43.45 25.08Z" fill="url(#paint0_linear)"/>
<defs>
<linearGradient id="paint0_linear" x1="43.45" y1="0" x2="43.45" y2="117.48" gradientUnits="userSpaceOnUse">
<stop stop-color="#009ED0"/>
<stop offset="1" stop-color="#2C344D"/>
</linearGradient>
</defs>
</svg>
