<svg width="93" height="118" viewBox="0 0 93 118" fill="none" xmlns="http://www.w3.org/2000/svg">
<path d="M46.42 0C21.11 0 0.519989 20.59 0.519989 45.9C0.519989 60.62 7.48999 73.74 18.3 82.14V114.91C18.3 115.82 18.79 116.65 19.58 117.09C20.37 117.53 21.34 117.51 22.11 117.03L46.41 102.03L70.71 117.03C71.11 117.28 71.57 117.4 72.02 117.4C72.44 117.4 72.86 117.29 73.24 117.08C74.03 116.64 74.52 115.8 74.52 114.9V82.13C85.33 73.73 92.3 60.61 92.3 45.89C92.31 20.59 71.72 0 46.42 0ZM69.53 110.42L47.73 96.97C47.33 96.72 46.87 96.6 46.42 96.6C45.97 96.6 45.51 96.72 45.11 96.97L23.31 110.42V85.52C30.1 89.5 38 91.79 46.42 91.79C54.84 91.79 62.74 89.5 69.53 85.52V110.42ZM74.53 75.55C72.97 77.03 71.3 78.39 69.53 79.61C62.95 84.13 54.99 86.79 46.42 86.79C37.85 86.79 29.89 84.13 23.31 79.61C21.54 78.39 19.87 77.03 18.31 75.55C10.44 68.1 5.51999 57.56 5.51999 45.9C5.51999 23.35 23.87 5 46.42 5C68.97 5 87.32 23.35 87.32 45.9C87.31 57.56 82.39 68.1 74.53 75.55Z" fill="url(#paint0_linear)"/>
<defs>
<linearGradient id="paint0_linear" x1="46.41" y1="0" x2="46.41" y2="117.406" gradientUnits="userSpaceOnUse">
<stop stop-color="#009ED0"/>
<stop offset="1" stop-color="#2C344D"/>
</linearGradient>
</defs>
</svg>
