<svg width="104" height="109" viewBox="0 0 104 109" fill="none" xmlns="http://www.w3.org/2000/svg">
<path d="M102.41 16.01C101.93 15.59 101.3 15.37 100.68 15.4C97.55 14.94 82.1 8.52 81.32 2.2C81.17 0.94 80.11 0 78.84 0H24.43C23.17 0 22.1 0.94 21.95 2.19C21.17 8.51 5.71999 14.93 2.58999 15.39C1.96999 15.37 1.33999 15.58 0.859992 16C0.259992 16.52 -0.0600076 17.3 0.00999241 18.1C2.46999 46.48 14.93 73.2 35.09 93.36L49.87 108.14C50.34 108.61 50.97 108.87 51.64 108.87C52.31 108.87 52.94 108.61 53.41 108.14L68.19 93.36C88.35 73.2 100.81 46.47 103.27 18.1C103.33 17.31 103.02 16.53 102.41 16.01ZM36.85 62.75C36.77 62.64 36.68 62.53 36.58 62.43L30.01 55.85L36.22 49.64L42.79 56.21C43.77 57.19 45.35 57.19 46.33 56.21L66.09 36.45L72.3 42.66L44.53 70.43L36.85 62.75Z" fill="#F79A1A"/>
</svg>
