<svg width="105" height="109" viewBox="0 0 105 109" fill="none" xmlns="http://www.w3.org/2000/svg">
<path d="M103.4 16.01C102.92 15.59 102.29 15.37 101.67 15.4C98.54 14.94 83.09 8.52 82.31 2.2C82.16 0.94 81.1 0 79.83 0H25.42C24.16 0 23.09 0.94 22.94 2.19C22.16 8.51 6.70998 14.93 3.57998 15.39C2.95998 15.37 2.32998 15.58 1.84998 16C1.24998 16.52 0.929983 17.3 0.999983 18.1C3.45998 46.48 15.92 73.2 36.08 93.36L50.86 108.14C51.33 108.61 51.96 108.87 52.63 108.87C53.3 108.87 53.93 108.61 54.4 108.14L69.18 93.36C89.34 73.2 101.8 46.47 104.26 18.1C104.32 17.31 104.01 16.53 103.4 16.01ZM65.64 89.84L52.63 102.85L39.62 89.84C20.8 71.02 8.98998 46.25 6.19998 19.86C10.05 18.76 16.08 16.02 20.28 13.07C23.95 10.49 26.32 7.78 27.36 5H77.9C78.94 7.79 81.32 10.49 84.98 13.07C89.17 16.02 95.21 18.75 99.06 19.86C96.27 46.25 84.45 71.02 65.64 89.84Z" fill="url(#paint0_linear)"/>
<defs>
<linearGradient id="paint0_linear" x1="52.6289" y1="0" x2="52.6289" y2="108.87" gradientUnits="userSpaceOnUse">
<stop stop-color="#009ED0"/>
<stop offset="1" stop-color="#2C344D"/>
</linearGradient>
</defs>
</svg>
