<svg width="56" height="47" viewBox="0 0 56 47" fill="none" xmlns="http://www.w3.org/2000/svg">
<path d="M44.84 1.15004C43.86 0.170039 42.28 0.170039 41.3 1.15004L21.54 20.92L14.97 14.35C13.99 13.37 12.41 13.37 11.43 14.35L1.68996 24.09C0.709956 25.07 0.709956 26.65 1.68996 27.63L9.73996 35.68C9.81996 35.79 9.90996 35.9 10.01 36L19.75 45.74C20.24 46.23 20.88 46.47 21.52 46.47C22.16 46.47 22.8 46.23 23.29 45.74L54.59 14.44C55.06 13.97 55.32 13.34 55.32 12.67C55.32 12 55.06 11.37 54.59 10.9L44.84 1.15004ZM21.52 40.43L13.84 32.75C13.76 32.64 13.67 32.53 13.57 32.43L6.99996 25.85L13.21 19.64L19.78 26.21C20.76 27.19 22.34 27.19 23.32 26.21L43.08 6.45004L49.29 12.66L21.52 40.43Z" fill="url(#paint0_linear)"/>
<defs>
<linearGradient id="paint0_linear" x1="28.1375" y1="0.415039" x2="28.1375" y2="46.47" gradientUnits="userSpaceOnUse">
<stop stop-color="#009ED0"/>
<stop offset="1" stop-color="#2C344D"/>
</linearGradient>
</defs>
</svg>
