<svg width="57" height="84" viewBox="0 0 57 84" fill="none" xmlns="http://www.w3.org/2000/svg">
<path d="M28.5 0C12.785 0 0 13.5544 0 30.2149C0 50.8912 25.5047 81.2451 26.5906 82.5272C27.6105 83.7316 29.3913 83.7294 30.4094 82.5272C31.4953 81.2451 57 50.8912 57 30.2149C56.9997 13.5544 44.2148 0 28.5 0ZM28.5 45.4169C20.5934 45.4169 14.1611 38.5974 14.1611 30.2149C14.1611 21.8325 20.5936 15.0131 28.5 15.0131C36.4064 15.0131 42.8388 21.8327 42.8388 30.2151C42.8388 38.5975 36.4064 45.4169 28.5 45.4169Z" fill="url(#paint0_linear)"/>
<defs>
<linearGradient id="paint0_linear" x1="28.5" y1="0" x2="28.5" y2="83.4297" gradientUnits="userSpaceOnUse">
<stop stop-color="#009ED0"/>
<stop offset="1" stop-color="#2C344D"/>
</linearGradient>
</defs>
</svg>
