<svg width="29" height="27" fill="none" xmlns="http://www.w3.org/2000/svg"><path d="M22.522 20.763c.375 0 .727.074 1.056.221.328.148.614.35.858.605s.437.555.577.9c.141.343.211.712.211 1.105a2.892 2.892 0 01-.788 2.006 2.71 2.71 0 01-.858.604 2.54 2.54 0 01-1.056.222 2.56 2.56 0 01-1.056-.221 2.708 2.708 0 01-.858-.605 2.892 2.892 0 01-.788-2.006c0-.304.05-.619.154-.943h-7.517c.104.324.155.639.155.943a2.892 2.892 0 01-.788 2.006c-.244.255-.53.457-.859.604-.328.148-.68.222-1.055.222-.376 0-.728-.074-1.056-.221a2.709 2.709 0 01-.859-.605 2.892 2.892 0 01-.788-2.006c0-.54.136-1.042.408-1.504a2.63 2.63 0 011.126-1.047L2.661 1.888H0V0h3.955l1.197 3.775h23.676l-4.195 13.213H9.361l1.196 3.775h11.965zM10.81 23.594a.929.929 0 00-.268-.663.847.847 0 00-.633-.28.847.847 0 00-.634.28.929.929 0 00-.267.663.93.93 0 00.267.664c.178.187.39.28.634.28a.847.847 0 00.633-.28.929.929 0 00.268-.664zm11.71.944a.847.847 0 00.634-.28.929.929 0 00.268-.664.929.929 0 00-.268-.663.847.847 0 00-.633-.28.847.847 0 00-.634.28.929.929 0 00-.267.663c0 .256.09.477.267.664.179.187.39.28.634.28z" fill="#2C344D"/></svg>