<svg width="27" height="24" fill="none" xmlns="http://www.w3.org/2000/svg"><path d="M13.642 4.165l-.353-.352-1.224-1.22a6.592 6.592 0 00-2.122-1.395A6.529 6.529 0 007.448.713a6.53 6.53 0 00-2.495.485A6.592 6.592 0 002.83 2.593a6.44 6.44 0 00-1.065 1.37 6.002 6.002 0 00-.632 1.54A6.674 6.674 0 00.929 7.15c0 .559.071 1.1.214 1.625.144.527.356 1.04.637 1.54.278.493.627.948 1.051 1.366l10.81-7.516zm0 0l.353-.352 1.223-1.22a6.59 6.59 0 012.122-1.395 6.529 6.529 0 012.495-.485 6.53 6.53 0 012.495.485c.79.322 1.497.787 2.123 1.396a6.16 6.16 0 011.05 1.364c.28.5.492 1.017.636 1.552a6.23 6.23 0 01.215 1.627c0 .553-.068 1.097-.204 1.634a6 6 0 01-.631 1.54 6.491 6.491 0 01-1.067 1.37l-10.81 10.652-10.81-10.651 10.81-7.517z" stroke="#fff"/></svg>