<svg width="184" height="80" fill="none" xmlns="http://www.w3.org/2000/svg"><path d="M36.167 33.602l-2.689 4.659c-4.734-3.14-10.169-4.906-16.181-5.255-5.278-.308-11.004.472-17.02 2.32H.27C1.868 21.607 10.407 10.005 22.284 4.13c.194.176.39.354.583.535 9.637 8.985 14.113 18.714 13.32 28.938h-.02z" fill="url(#paint0_linear)"/><path d="M32.434 40.106l2.884 4.995c-5.136 2.53-9.42 6.374-12.754 11.442-2.851 4.336-5.012 9.572-6.423 15.565C6.345 64.817 0 53.15 0 40c0-.803.023-1.602.072-2.395.29-.093.582-.185.876-.275 12.483-3.816 23.066-2.884 31.486 2.776z" fill="url(#paint1_linear)"/><path d="M37.15 46.574h4.827c-.467 5.86.709 11.641 3.501 17.199 2.286 4.553 5.657 8.96 10.022 13.113A39.876 39.876 0 0140 80a39.807 39.807 0 01-21.99-6.582l.126-.553c3.025-13.12 9.422-21.961 19.015-26.29z" fill="url(#paint2_linear)"/><path d="M79.663 45.207c-1.758 13.54-10.289 24.953-22.082 30.731l-.184-.169c-10.007-9.33-14.45-19.466-13.203-30.123v-.002l2.169-3.757c4.834 3.318 10.412 5.18 16.604 5.54 5.183.303 10.799-.444 16.696-2.22z" fill="url(#paint3_linear)"/><path d="M62.303 6.791c-.056.26-.114.518-.174.777-2.97 12.87-9.18 21.623-18.47 26.039l-.003-.005h-5.35c.413-5.773-.768-11.465-3.518-16.941-2.356-4.691-5.863-9.228-10.423-13.49A39.866 39.866 0 0140 0c2.65 0 5.24.257 7.748.75a39.73 39.73 0 0114.555 6.041z" fill="url(#paint4_linear)"/><path d="M80 40c0 .983-.035 1.958-.106 2.923l-.578.18c-12.722 3.89-23.47 2.846-31.968-3.107l-2.63-4.555c5.238-2.525 9.6-6.407 12.982-11.55 2.885-4.384 5.06-9.687 6.47-15.764C73.79 15.43 80 26.99 80 40z" fill="url(#paint5_linear)"/><path d="M114.4 35l-.02-8.4-4.12 6.92h-1.46l-4.1-6.74V35h-3.04V21h2.68l5.24 8.7 5.16-8.7h2.66l.04 14h-3.04z" fill="url(#paint6_linear)"/><path d="M131.602 32.4V35h-10.84V21h10.58v2.6h-7.36v3.04h6.5v2.52h-6.5v3.24h7.62z" fill="url(#paint7_linear)"/><path d="M137.08 23.64h-4.48V21h12.2v2.64h-4.48V35h-3.24V23.64z" fill="url(#paint8_linear)"/><path d="M155.06 32h-6.5l-1.24 3H144l6.24-14h3.2l6.26 14h-3.4l-1.24-3zm-1.02-2.46l-2.22-5.36-2.22 5.36h4.44z" fill="url(#paint9_linear)"/><path d="M161.152 21h3.24v11.36h7.02V35h-10.26V21z" fill="url(#paint10_linear)"/><path d="M173.223 21h3.239v11.36h7.02V35h-10.259V21z" fill="url(#paint11_linear)"/><path d="M107.52 50.22c.893 0 1.707.18 2.44.54a4.24 4.24 0 011.74 1.54c.427.653.64 1.413.64 2.28 0 .933-.233 1.753-.7 2.46-.467.707-1.107 1.253-1.92 1.64-.8.373-1.693.56-2.68.56-1.96 0-3.493-.6-4.6-1.8-1.107-1.2-1.66-2.913-1.66-5.14 0-1.587.3-2.947.9-4.08.6-1.133 1.433-1.993 2.5-2.58 1.08-.587 2.327-.88 3.74-.88.747 0 1.46.087 2.14.26.693.16 1.28.393 1.76.7l-1.2 2.38c-.693-.467-1.567-.7-2.62-.7-1.187 0-2.127.347-2.82 1.04-.693.693-1.067 1.7-1.12 3.02.827-.827 1.98-1.24 3.46-1.24zm-.66 6.6c.693 0 1.253-.187 1.68-.56.44-.373.66-.88.66-1.52s-.22-1.147-.66-1.52c-.427-.387-1-.58-1.72-.58-.707 0-1.287.2-1.74.6-.453.387-.68.887-.68 1.5s.22 1.113.66 1.5c.44.387 1.04.58 1.8.58z" fill="url(#paint12_linear)"/><path d="M120.254 50.22c.894 0 1.707.18 2.44.54a4.23 4.23 0 011.74 1.54c.427.653.64 1.413.64 2.28 0 .933-.233 1.753-.7 2.46-.466.707-1.106 1.253-1.92 1.64-.8.373-1.693.56-2.68.56-1.96 0-3.493-.6-4.6-1.8-1.106-1.2-1.66-2.913-1.66-5.14 0-1.587.3-2.947.9-4.08.6-1.133 1.434-1.993 2.5-2.58 1.08-.587 2.327-.88 3.74-.88.747 0 1.46.087 2.14.26.694.16 1.28.393 1.76.7l-1.2 2.38c-.693-.467-1.566-.7-2.62-.7-1.186 0-2.126.347-2.82 1.04-.693.693-1.066 1.7-1.12 3.02.827-.827 1.98-1.24 3.46-1.24zm-.66 6.6c.694 0 1.254-.187 1.68-.56.44-.373.66-.88.66-1.52s-.22-1.147-.66-1.52c-.426-.387-1-.58-1.72-.58-.706 0-1.286.2-1.74.6-.453.387-.68.887-.68 1.5s.22 1.113.66 1.5c.44.387 1.04.58 1.8.58z" fill="url(#paint13_linear)"/><path d="M128.284 59.16a1.874 1.874 0 01-1.38-.56c-.373-.373-.56-.84-.56-1.4 0-.573.187-1.033.56-1.38.373-.36.833-.54 1.38-.54.547 0 1.007.18 1.38.54.373.347.56.807.56 1.38 0 .56-.187 1.027-.56 1.4-.373.373-.833.56-1.38.56z" fill="url(#paint14_linear)"/><path d="M141.478 59l-2.7-3.9h-2.98V59h-3.24V45h6.06c1.24 0 2.314.207 3.22.62.92.413 1.627 1 2.12 1.76.494.76.74 1.66.74 2.7 0 1.04-.253 1.94-.76 2.7-.493.747-1.2 1.32-2.12 1.72l3.14 4.5h-3.48zm-.06-8.92c0-.787-.253-1.387-.76-1.8-.506-.427-1.246-.64-2.22-.64h-2.64v4.88h2.64c.974 0 1.714-.213 2.22-.64.507-.427.76-1.027.76-1.8z" fill="url(#paint15_linear)"/><path d="M153.485 59.24c-2 0-3.56-.553-4.68-1.66-1.106-1.107-1.66-2.687-1.66-4.74V45h3.24v7.72c0 2.507 1.04 3.76 3.12 3.76 1.014 0 1.787-.3 2.32-.9.534-.613.8-1.567.8-2.86V45h3.2v7.84c0 2.053-.56 3.633-1.68 4.74-1.106 1.107-2.66 1.66-4.66 1.66z" fill="url(#paint16_linear)"/><defs><linearGradient id="paint0_linear" x1="45.5" y1="0" x2="127.5" y2="80" gradientUnits="userSpaceOnUse"><stop stop-color="#2C344D"/><stop offset="1" stop-color="#009ED0"/></linearGradient><linearGradient id="paint1_linear" x1="45.5" y1="0" x2="127.5" y2="80" gradientUnits="userSpaceOnUse"><stop stop-color="#2C344D"/><stop offset="1" stop-color="#009ED0"/></linearGradient><linearGradient id="paint2_linear" x1="45.5" y1="0" x2="127.5" y2="80" gradientUnits="userSpaceOnUse"><stop stop-color="#2C344D"/><stop offset="1" stop-color="#009ED0"/></linearGradient><linearGradient id="paint3_linear" x1="45.5" y1="0" x2="127.5" y2="80" gradientUnits="userSpaceOnUse"><stop stop-color="#2C344D"/><stop offset="1" stop-color="#009ED0"/></linearGradient><linearGradient id="paint4_linear" x1="45.5" y1="0" x2="127.5" y2="80" gradientUnits="userSpaceOnUse"><stop stop-color="#2C344D"/><stop offset="1" stop-color="#009ED0"/></linearGradient><linearGradient id="paint5_linear" x1="45.5" y1="0" x2="127.5" y2="80" gradientUnits="userSpaceOnUse"><stop stop-color="#2C344D"/><stop offset="1" stop-color="#009ED0"/></linearGradient><linearGradient id="paint6_linear" x1="45.5" y1="0" x2="127.5" y2="80" gradientUnits="userSpaceOnUse"><stop stop-color="#2C344D"/><stop offset="1" stop-color="#009ED0"/></linearGradient><linearGradient id="paint7_linear" x1="45.5" y1="0" x2="127.5" y2="80" gradientUnits="userSpaceOnUse"><stop stop-color="#2C344D"/><stop offset="1" stop-color="#009ED0"/></linearGradient><linearGradient id="paint8_linear" x1="45.5" y1="0" x2="127.5" y2="80" gradientUnits="userSpaceOnUse"><stop stop-color="#2C344D"/><stop offset="1" stop-color="#009ED0"/></linearGradient><linearGradient id="paint9_linear" x1="45.5" y1="0" x2="127.5" y2="80" gradientUnits="userSpaceOnUse"><stop stop-color="#2C344D"/><stop offset="1" stop-color="#009ED0"/></linearGradient><linearGradient id="paint10_linear" x1="45.5" y1="0" x2="127.5" y2="80" gradientUnits="userSpaceOnUse"><stop stop-color="#2C344D"/><stop offset="1" stop-color="#009ED0"/></linearGradient><linearGradient id="paint11_linear" x1="45.5" y1="0" x2="127.5" y2="80" gradientUnits="userSpaceOnUse"><stop stop-color="#2C344D"/><stop offset="1" stop-color="#009ED0"/></linearGradient><linearGradient id="paint12_linear" x1="45.5" y1="0" x2="127.5" y2="80" gradientUnits="userSpaceOnUse"><stop stop-color="#2C344D"/><stop offset="1" stop-color="#009ED0"/></linearGradient><linearGradient id="paint13_linear" x1="45.5" y1="0" x2="127.5" y2="80" gradientUnits="userSpaceOnUse"><stop stop-color="#2C344D"/><stop offset="1" stop-color="#009ED0"/></linearGradient><linearGradient id="paint14_linear" x1="45.5" y1="0" x2="127.5" y2="80" gradientUnits="userSpaceOnUse"><stop stop-color="#2C344D"/><stop offset="1" stop-color="#009ED0"/></linearGradient><linearGradient id="paint15_linear" x1="45.5" y1="0" x2="127.5" y2="80" gradientUnits="userSpaceOnUse"><stop stop-color="#2C344D"/><stop offset="1" stop-color="#009ED0"/></linearGradient><linearGradient id="paint16_linear" x1="45.5" y1="0" x2="127.5" y2="80" gradientUnits="userSpaceOnUse"><stop stop-color="#2C344D"/><stop offset="1" stop-color="#009ED0"/></linearGradient></defs></svg>