<svg width="119" height="102" fill="none" xmlns="http://www.w3.org/2000/svg"><path d="M118.89 58.24l-.01-.46a59.485 59.485 0 00-21.54-44.16l-.01-.01A59.612 59.612 0 0059.46 0C46.18 0 33.61 4.29 23.11 12.42 8.95 23.38.54 39.91.05 57.78l-.02.48c-.01.4-.03.8-.03 1.2 0 15.42 5.89 30.05 16.6 41.18.47.48 1.11.76 1.78.77h.02c.66 0 1.3-.26 1.77-.73l14.55-14.55c.96-.96.98-2.5.05-3.48a33.749 33.749 0 01-9.19-23.19c0-.5.02-1 .04-1.49.44-10.09 5.32-19.38 13.38-25.51 5.93-4.5 13-6.88 20.46-6.88 7.84 0 15.21 2.61 21.3 7.54A33.88 33.88 0 0193.3 57.96c.02.5.04.99.04 1.49 0 4.25-.79 8.4-2.3 12.27L64.84 49.8c-.68-.57-1.6-.73-2.44-.44l-15.3 5.4c-.63.22-1.14.68-1.42 1.28-.29.6-.32 1.29-.1 1.91l5.4 15.3c.29.83 1 1.45 1.87 1.62l32.48 6.46c-.38.45-.77.88-1.17 1.31a2.5 2.5 0 00.05 3.48l14.55 14.55c.47.47 1.1.73 1.77.73h.02c.67-.01 1.31-.28 1.78-.77 10.7-11.13 16.6-25.76 16.6-41.18-.02-.4-.03-.81-.04-1.21z" fill="#F79A1A"/></svg>