<svg width="120" height="102" fill="none" xmlns="http://www.w3.org/2000/svg"><path d="M119.67 58.24l-.01-.46a59.485 59.485 0 00-21.54-44.16l-.01-.01A59.612 59.612 0 0060.24 0C46.96 0 34.39 4.29 23.89 12.42 9.73 23.38 1.32 39.91.83 57.78l-.02.48c-.01.4-.03.8-.03 1.2 0 15.42 5.89 30.05 16.6 41.18.47.48 1.11.76 1.78.77h.02c.66 0 1.3-.26 1.77-.73L35.5 86.13c.96-.96.98-2.5.05-3.48a33.749 33.749 0 01-9.19-23.19c0-.5.02-1 .04-1.49.44-10.09 5.32-19.38 13.38-25.51 5.93-4.5 13-6.88 20.46-6.88 7.84 0 15.21 2.61 21.3 7.54a33.88 33.88 0 0112.54 24.84c.02.5.04.99.04 1.49 0 4.25-.79 8.4-2.3 12.27L65.62 49.8c-.68-.57-1.6-.73-2.44-.44l-15.3 5.4c-.63.22-1.14.68-1.42 1.28-.29.6-.32 1.29-.1 1.91l5.4 15.3c.29.83 1 1.45 1.87 1.62l32.48 6.46c-.38.45-.77.88-1.17 1.31a2.5 2.5 0 00.05 3.48l14.55 14.55c.47.47 1.1.73 1.77.73h.02c.67-.01 1.31-.28 1.78-.77 10.7-11.13 16.6-25.76 16.6-41.18-.02-.4-.03-.81-.04-1.21zM30.3 84.25L19.26 95.29C10.75 85.58 6 73.29 5.79 60.35h15.58a38.71 38.71 0 008.93 23.9zm-8.72-28.9H5.96c1.09-14.56 7.92-27.97 19.08-37.43l.11.14c.7.87 1.39 1.74 2.11 2.64.53.67 1.07 1.34 1.61 2.02.38.48.76.95 1.14 1.43.81 1.02 1.63 2.04 2.45 3.07l2.3 2.87a38.704 38.704 0 00-13.18 25.26zm61.17-27.59a38.979 38.979 0 00-22.51-7.18c-7.74 0-15.12 2.23-21.5 6.48-.32-.4-.64-.8-.97-1.21-.31-.39-.62-.78-.93-1.16-2.68-3.35-5.33-6.66-7.85-9.82C38.18 8.4 48.93 5 60.24 5c11.79 0 23.29 3.85 32.68 10.89L82.75 27.76zm3.88 3.15l10.14-11.83a54.46 54.46 0 0117.75 36.27H98.9a38.93 38.93 0 00-12.27-24.44zM55.99 70.25l-4.09-11.6 11.6-4.09 26.09 21.82.86.72-1.16-.23-33.3-6.62zm45.23 25.04L90.18 84.25c.49-.59.96-1.21 1.42-1.83l7.48 1.49a2.49 2.49 0 002.74-1.37c.49-1.03.23-2.26-.65-3l-5.33-4.45c2.03-4.61 3.16-9.6 3.27-14.74h15.58c-.21 12.94-4.96 25.23-13.47 34.94z" fill="url(#paint0_linear)"/><defs><linearGradient id="paint0_linear" x1="60.245" y1="0" x2="60.245" y2="101.41" gradientUnits="userSpaceOnUse"><stop stop-color="#009ED0"/><stop offset="1" stop-color="#2C344D"/></linearGradient></defs></svg>