<svg width="87" height="118" fill="none" xmlns="http://www.w3.org/2000/svg"><path d="M43.45 117.48c-1.72 0-3.37-.73-4.52-2.02C37.35 113.7.24 72.03.24 43.21.24 19.38 19.63 0 43.45 0s43.21 19.38 43.21 43.21c0 28.8-37.11 70.49-38.69 72.25a6.094 6.094 0 01-4.52 2.02zm0-112.68C22.27 4.8 5.04 22.03 5.04 43.21c0 27.01 35.93 67.34 37.46 69.05.33.37.74.42.95.42.21 0 .62-.06.95-.42 1.53-1.7 37.46-42.06 37.46-69.05 0-21.18-17.23-38.41-38.41-38.41zm0 61.34c-12.64 0-22.93-10.29-22.93-22.93s10.29-22.93 22.93-22.93 22.93 10.29 22.93 22.93-10.29 22.93-22.93 22.93zm0-41.06c-10 0-18.13 8.13-18.13 18.13 0 10 8.13 18.13 18.13 18.13 10 0 18.13-8.13 18.13-18.13 0-10-8.13-18.13-18.13-18.13z" fill="url(#paint0_linear)"/><defs><linearGradient id="paint0_linear" x1="43.45" y1="0" x2="43.45" y2="117.48" gradientUnits="userSpaceOnUse"><stop stop-color="#009ED0"/><stop offset="1" stop-color="#2C344D"/></linearGradient></defs></svg>