<svg width="92" height="118" fill="none" xmlns="http://www.w3.org/2000/svg"><path d="M45.9 0C20.59 0 0 20.59 0 45.9c0 14.72 6.97 27.84 17.78 36.24v32.77a2.492 2.492 0 003.81 2.12l24.3-15 24.3 15c.4.25.86.37 1.31.37a2.502 2.502 0 002.5-2.5V82.13c10.81-8.4 17.78-21.52 17.78-36.24C91.79 20.59 71.2 0 45.9 0zm7.01 52.19l3.43 10.55-8.98-6.52a2.49 2.49 0 00-2.94 0l-8.98 6.52 3.43-10.55c.33-1.03-.03-2.16-.91-2.79l-8.98-6.52h11.1c1.08 0 2.04-.7 2.38-1.73l3.43-10.55 3.43 10.55a2.494 2.494 0 002.38 1.73h11.1l-8.98 6.52c-.88.64-1.24 1.76-.91 2.79z" fill="#F79A1A"/></svg>