<svg width="93" height="118" fill="none" xmlns="http://www.w3.org/2000/svg"><path d="M46.42 0C21.11 0 .52 20.59.52 45.9c0 14.72 6.97 27.84 17.78 36.24v32.77a2.492 2.492 0 003.81 2.12l24.3-15 24.3 15c.4.25.86.37 1.31.37a2.502 2.502 0 002.5-2.5V82.13c10.81-8.4 17.78-21.52 17.78-36.24C92.31 20.59 71.72 0 46.42 0zm23.11 110.42l-21.8-13.45c-.4-.25-.86-.37-1.31-.37-.45 0-.91.12-1.31.37l-21.8 13.45v-24.9a45.57 45.57 0 0023.11 6.27c8.42 0 16.32-2.29 23.11-6.27v24.9zm5-34.87a40.691 40.691 0 01-28.11 11.24 40.691 40.691 0 01-28.11-11.24C10.44 68.1 5.52 57.56 5.52 45.9 5.52 23.35 23.87 5 46.42 5c22.55 0 40.9 18.35 40.9 40.9-.01 11.66-4.93 22.2-12.79 29.65z" fill="url(#paint0_linear)"/><defs><linearGradient id="paint0_linear" x1="46.41" y1="0" x2="46.41" y2="117.406" gradientUnits="userSpaceOnUse"><stop stop-color="#009ED0"/><stop offset="1" stop-color="#2C344D"/></linearGradient></defs></svg>