<svg width="55" height="52" fill="none" xmlns="http://www.w3.org/2000/svg"><path d="M52.02 17.87H35.04L29.8 1.73A2.513 2.513 0 0027.42 0c-1.08 0-2.04.7-2.38 1.73l-5.25 16.14H2.82c-1.08 0-2.04.7-2.38 1.73-.33 1.03.03 2.16.91 2.79l13.73 9.98-5.25 16.14c-.33 1.03.03 2.16.91 2.79.44.32.95.48 1.47.48s1.03-.16 1.47-.48l13.73-9.98 13.73 9.98c.88.64 2.06.64 2.94 0 .88-.64 1.24-1.76.91-2.79l-5.25-16.14 13.73-9.98c.88-.64 1.24-1.77.91-2.79a2.47 2.47 0 00-2.36-1.73zM35.34 29.4c-.88.64-1.24 1.76-.91 2.79l3.43 10.55-8.98-6.52a2.49 2.49 0 00-2.94 0l-8.98 6.52 3.43-10.55c.33-1.03-.03-2.16-.91-2.79l-8.98-6.52h11.1c1.08 0 2.04-.7 2.38-1.73l3.43-10.55 3.43 10.55a2.494 2.494 0 002.38 1.73h11.1l-8.98 6.52z" fill="url(#paint0_linear)"/><defs><linearGradient id="paint0_linear" x1="27.41" y1="0" x2="27.41" y2="51.78" gradientUnits="userSpaceOnUse"><stop stop-color="#009ED0"/><stop offset="1" stop-color="#2C344D"/></linearGradient></defs></svg>