<svg width="104" height="109" fill="none" xmlns="http://www.w3.org/2000/svg"><path d="M102.41 16.01a2.47 2.47 0 00-1.73-.61c-3.13-.46-18.58-6.88-19.36-13.2A2.49 2.49 0 0078.84 0H24.43c-1.26 0-2.33.94-2.48 2.19-.78 6.32-16.23 12.74-19.36 13.2-.62-.02-1.25.19-1.73.61-.6.52-.92 1.3-.85 2.1 2.46 28.38 14.92 55.1 35.08 75.26l14.78 14.78c.47.47 1.1.73 1.77.73.67 0 1.3-.26 1.77-.73l14.78-14.78c20.16-20.16 32.62-46.89 35.08-75.26.06-.79-.25-1.57-.86-2.09zM36.85 62.75c-.08-.11-.17-.22-.27-.32l-6.57-6.58 6.21-6.21 6.57 6.57c.98.98 2.56.98 3.54 0l19.76-19.76 6.21 6.21-27.77 27.77-7.68-7.68z" fill="#F79A1A"/></svg>