<svg width="105" height="109" fill="none" xmlns="http://www.w3.org/2000/svg"><path d="M103.4 16.01a2.47 2.47 0 00-1.73-.61c-3.13-.46-18.58-6.88-19.36-13.2A2.49 2.49 0 0079.83 0H25.42c-1.26 0-2.33.94-2.48 2.19-.78 6.32-16.23 12.74-19.36 13.2-.62-.02-1.25.19-1.73.61-.6.52-.92 1.3-.85 2.1 2.46 28.38 14.92 55.1 35.08 75.26l14.78 14.78c.47.47 1.1.73 1.77.73.67 0 1.3-.26 1.77-.73l14.78-14.78C89.34 73.2 101.8 46.47 104.26 18.1c.06-.79-.25-1.57-.86-2.09zM65.64 89.84l-13.01 13.01-13.01-13.01C20.8 71.02 8.99 46.25 6.2 19.86c3.85-1.1 9.88-3.84 14.08-6.79 3.67-2.58 6.04-5.29 7.08-8.07H77.9c1.04 2.79 3.42 5.49 7.08 8.07 4.19 2.95 10.23 5.68 14.08 6.79-2.79 26.39-14.61 51.16-33.42 69.98z" fill="url(#paint0_linear)"/><defs><linearGradient id="paint0_linear" x1="52.629" y1="0" x2="52.629" y2="108.87" gradientUnits="userSpaceOnUse"><stop stop-color="#009ED0"/><stop offset="1" stop-color="#2C344D"/></linearGradient></defs></svg>