<svg width="56" height="47" fill="none" xmlns="http://www.w3.org/2000/svg"><path d="M44.84 1.15c-.98-.98-2.56-.98-3.54 0L21.54 20.92l-6.57-6.57c-.98-.98-2.56-.98-3.54 0l-9.74 9.74c-.98.98-.98 2.56 0 3.54l8.05 8.05c.08.11.17.22.27.32l9.74 9.74c.49.49 1.13.73 1.77.73.64 0 1.28-.24 1.77-.73l31.3-31.3c.47-.47.73-1.1.73-1.77 0-.67-.26-1.3-.73-1.77l-9.75-9.75zM21.52 40.43l-7.68-7.68c-.08-.11-.17-.22-.27-.32L7 25.85l6.21-6.21 6.57 6.57c.98.98 2.56.98 3.54 0L43.08 6.45l6.21 6.21-27.77 27.77z" fill="url(#paint0_linear)"/><defs><linearGradient id="paint0_linear" x1="28.137" y1=".415" x2="28.137" y2="46.47" gradientUnits="userSpaceOnUse"><stop stop-color="#009ED0"/><stop offset="1" stop-color="#2C344D"/></linearGradient></defs></svg>