<svg width="27" height="24" viewBox="0 0 27 24" fill="none" xmlns="http://www.w3.org/2000/svg">
<path d="M13.6415 4.16452L13.2885 3.81264L12.0648 2.59278C11.4395 1.98437 10.733 1.52031 9.94279 1.1975C9.15238 0.87459 8.32209 0.712769 7.44803 0.712769C6.57396 0.712769 5.74368 0.87459 4.95327 1.1975C4.16272 1.52047 3.45582 1.98483 2.83032 2.59367C2.40549 3.01293 2.05085 3.46955 1.76458 3.96372C1.47719 4.45985 1.2672 4.97281 1.13274 5.50336C0.996805 6.03975 0.928711 6.58822 0.928711 7.14979C0.928711 7.70889 1.00048 8.25017 1.1434 8.77493C1.28696 9.30209 1.49881 9.8155 1.7805 10.3157C2.05766 10.8078 2.40716 11.263 2.83124 11.6814L13.6415 4.16452ZM13.6415 4.16452L13.9945 3.81264L15.2183 2.59278C15.8435 1.98437 16.5501 1.52031 17.3403 1.1975C18.1307 0.87459 18.961 0.712769 19.8351 0.712769C20.7091 0.712769 21.5394 0.87459 22.3298 1.1975C23.1204 1.52048 23.8273 1.98487 24.4528 2.59375C24.8765 3.01185 25.2256 3.4667 25.5026 3.95845C25.7837 4.45758 25.9955 4.97459 26.1392 5.51012C26.2828 6.04513 26.3544 6.58708 26.3544 7.13706C26.3544 7.68954 26.2864 8.2338 26.1503 8.77076C26.0159 9.30131 25.8059 9.81427 25.5185 10.3104C25.232 10.805 24.877 11.262 24.4516 11.6816L13.6415 22.333L2.83145 11.6816L13.6415 4.16452Z" stroke="#fff"/>
</svg>
