<svg width="42" height="38" fill="none" xmlns="http://www.w3.org/2000/svg"><path d="M22.41 31.518l-2.124 1.945c-.84.77-1.659 1.567-2.527 2.304-.633.538-1.396.673-2.218.5-.837-.178-1.31-.759-1.683-1.464-.33-.625-.517-1.304-.722-1.976-.765-2.502-1.526-5.005-2.289-7.508-.123-.403-.25-.805-.368-1.21-.028-.1-.078-.149-.175-.182a2000.96 2000.96 0 01-6.78-2.301c-.501-.172-1.01-.337-1.486-.566-.702-.337-1.287-.83-1.67-1.53-.662-1.212-.417-2.576.622-3.488.417-.367.893-.64 1.402-.855l6.283-2.662 9.178-3.892c3.716-1.578 7.431-3.159 11.15-4.734C31.78 2.723 34.559 1.55 37.34.382c.595-.25 1.21-.406 1.866-.379 1.296.054 2.429 1 2.709 2.275.146.666.086 1.324-.044 1.984-.268 1.36-.531 2.72-.795 4.08-.264 1.36-.525 2.72-.788 4.081l-.959 4.941-.926 4.766-1.141 5.899-1.188 6.12c-.07.361-.14.723-.205 1.085-.094.518-.368.946-.682 1.347-.886 1.134-2.078 1.516-3.464 1.399a3.839 3.839 0 01-1.405-.395c-.19-.095-.359-.237-.529-.368-2.43-1.876-4.858-3.755-7.287-5.633-.026-.02-.053-.038-.092-.066zM3.588 18.215l1.047.355c2.778.943 5.556 1.885 8.334 2.83.085.03.143.025.218-.023.821-.516 1.645-1.028 2.467-1.541l7.926-4.947c3.026-1.889 6.051-3.78 9.082-5.66.182-.114.406-.167.616-.222.144-.038.31-.016.379.141.082.188.135.396-.025.577-.164.186-.33.372-.51.542-1.2 1.13-2.404 2.256-3.605 3.384-1.982 1.86-3.962 3.722-5.943 5.584-1.934 1.816-3.87 3.631-5.802 5.45a.412.412 0 00-.12.217c-.158.978-.31 1.958-.461 2.937l-.604 3.9-.117.777.033.016 5.724-5.254c.059.044.102.075.144.108 1.358 1.05 2.716 2.098 4.074 3.146 1.734 1.34 3.465 2.682 5.206 4.012.155.119.362.187.556.23.244.055.481-.146.531-.404.197-1.02.394-2.04.593-3.06l1.375-7.06c.462-2.381.921-4.762 1.383-7.142l1.075-5.531c.492-2.54.984-5.08 1.474-7.62.039-.2.068-.401.101-.602l-.044-.034L3.588 18.214z" fill="#fff"/></svg>