<svg width="43" height="25" fill="none" xmlns="http://www.w3.org/2000/svg"><path d="M23.907 25h-4.58c-.042-.006-.083-.015-.124-.02-.28-.034-.563-.056-.841-.102-1.04-.175-2.02-.536-2.958-1.022-1.462-.756-2.753-1.76-3.952-2.894-1.565-1.478-2.934-3.134-4.192-4.887-2.176-3.03-4.004-6.274-5.593-9.663C1.08 5.162.528 3.894.067 2.587c-.258-.73.26-1.478 1.02-1.479h6.34a1.46 1.46 0 011.362.945 47.103 47.103 0 005.172 9.659c.054.076.108.154.173.219.764.762 2.035.52 2.482-.473a1.7 1.7 0 00.143-.738c-.03-1.937-.057-3.873-.089-5.81-.009-.574-.076-1.14-.293-1.677-.33-.812-.906-1.312-1.768-1.435-.19-.027-.383-.023-.582-.033a.368.368 0 01.032-.051c.656-.87 1.51-1.415 2.562-1.625.227-.046.46-.06.692-.089h.19c.099.007.197.02.295.02 1.714.002 3.428 0 5.142.003.137 0 .276.008.411.033 1.171.22 1.956 1.19 1.956 2.41 0 2.491-.001 4.982.002 7.472 0 .234.014.47.043.703.049.384.153.752.381 1.069.23.318.533.48.92.38.175-.045.354-.121.497-.229.232-.174.455-.37.65-.586.572-.64.993-1.386 1.391-2.146 1.25-2.386 2.497-4.774 3.75-7.157.296-.564.772-.86 1.397-.861 2.336-.006 4.672-.004 7.008 0 .207 0 .417.024.62.067.45.098.804.333.906.827.04.194.039.404.02.603-.04.425-.187.822-.357 1.21-.431.982-1.01 1.872-1.642 2.728-1.498 2.033-3.004 4.06-4.504 6.092a2.24 2.24 0 00.147 2.848c1.451 1.56 2.907 3.113 4.362 4.668.433.462.883.909 1.303 1.382.37.417.641.899.758 1.458.152.727-.124 1.344-.774 1.67-.223.112-.468.18-.71.244-.19.05-.388.063-.583.092h-6.85c-.02-.006-.039-.016-.06-.019a2.256 2.256 0 01-1.308-.63l-1.33-1.278c-1.14-1.098-2.28-2.197-3.423-3.293-.38-.366-.834-.51-1.347-.412-.757.145-1.267.788-1.267 1.579-.001.818.001 1.636-.001 2.454a1.599 1.599 0 01-1.072 1.513c-.107.037-.218.058-.327.086z" fill="#fff"/></svg>