<svg width="42" height="42" fill="none" xmlns="http://www.w3.org/2000/svg"><path d="M0 42c.106-.32.194-.586.284-.852 1.12-3.31 2.243-6.619 3.357-9.93a.455.455 0 00-.038-.337C2.175 28.46 1.23 25.868.92 23.08.135 15.98 2.39 9.977 7.703 5.154c2.775-2.518 6.07-4.076 9.76-4.788A20.473 20.473 0 0123.06.072c3.735.31 7.147 1.515 10.192 3.675 4.421 3.138 7.267 7.354 8.311 12.648 1.248 6.333-.184 12.085-4.307 17.098-3.172 3.856-7.285 6.232-12.223 7.113-4.705.84-9.193.123-13.424-2.107a.533.533 0 00-.453-.04C7.53 39.619 3.9 40.77.268 41.924.2 41.945.13 41.963 0 42zm5.293-5.188c.128-.036.199-.054.268-.076 2.04-.647 4.083-1.294 6.123-1.945a.46.46 0 01.428.052c3.853 2.399 8.024 3.219 12.494 2.384 3.725-.696 6.898-2.449 9.429-5.244 3.71-4.097 5.145-8.906 4.28-14.354-.521-3.28-1.965-6.14-4.202-8.603a17.186 17.186 0 00-17.231-5.032c-4.245 1.154-7.578 3.595-9.97 7.257-2.213 3.386-3.06 7.116-2.63 11.122.313 2.911 1.355 5.56 3.06 7.95.075.106.09.195.048.317-.635 1.863-1.266 3.728-1.897 5.592-.06.178-.121.354-.2.58z" fill="#fff"/><path d="M11.07 15.53c.013-1.864.753-3.393 2.164-4.608.4-.345.872-.492 1.403-.45.372.027.745.055 1.118.071a.73.73 0 01.637.401c.137.248.251.509.352.773.48 1.263.948 2.53 1.427 3.794.108.286.081.545-.052.817-.331.674-.865 1.186-1.38 1.71-.447.454-.494.654-.187 1.208 1.54 2.774 3.695 4.908 6.624 6.231.153.07.3.153.454.218.386.165.655.127.933-.18a83.795 83.795 0 001.75-1.985c.324-.381.549-.49 1.01-.287.675.299 1.332.636 1.987.974.74.382 1.463.798 2.208 1.17.413.206.595.484.552.95a6.126 6.126 0 01-.532 2.056 1.8 1.8 0 01-.296.43c-.798.869-1.79 1.425-2.929 1.708-1.098.272-2.18.205-3.257-.18-1.496-.533-2.986-1.079-4.389-1.825-1.729-.919-3.2-2.169-4.527-3.59-1.597-1.71-2.92-3.616-4.037-5.662-.68-1.245-1.037-2.639-1.033-3.744z" fill="#fff"/></svg>