<svg width="57" height="84" fill="none" xmlns="http://www.w3.org/2000/svg"><path d="M28.5 0C12.785 0 0 13.554 0 30.215c0 20.676 25.505 51.03 26.59 52.312a2.471 2.471 0 003.82 0C31.494 81.245 57 50.891 57 30.215 57 13.555 44.215 0 28.5 0zm0 45.417c-7.907 0-14.339-6.82-14.339-15.202 0-8.383 6.433-15.202 14.339-15.202 7.906 0 14.339 6.82 14.339 15.202S36.406 45.417 28.5 45.417z" fill="url(#paint0_linear)"/><defs><linearGradient id="paint0_linear" x1="28.5" y1="0" x2="28.5" y2="83.43" gradientUnits="userSpaceOnUse"><stop stop-color="#009ED0"/><stop offset="1" stop-color="#2C344D"/></linearGradient></defs></svg>